<mxfile host="app.diagrams.net" modified="2023-10-17T09:41:07.318Z" agent="Mozilla/5.0 (Windows NT 10.0; Win64; x64) AppleWebKit/537.36 (KHTML, like Gecko) Chrome/118.0.0.0 Safari/537.36" etag="j0YBNoaHggPiIKRRePx1" version="22.0.4" type="device">
  <diagram name="Page-1" id="gISpMiLSwzjVk8oD1Qp0">
    <mxGraphModel dx="978" dy="496" grid="1" gridSize="10" guides="1" tooltips="1" connect="1" arrows="1" fold="1" page="1" pageScale="1" pageWidth="850" pageHeight="1100" math="0" shadow="0">
      <root>
        <mxCell id="0" />
        <mxCell id="1" parent="0" />
        <mxCell id="m8sYrSvvSTLbcMCxaOKe-1" value="root" style="ellipse;whiteSpace=wrap;html=1;fontFamily=Courier New;fontStyle=1;fillColor=#dae8fc;strokeColor=#6c8ebf;gradientColor=#7ea6e0;" vertex="1" parent="1">
          <mxGeometry x="250" y="45" width="60" height="30" as="geometry" />
        </mxCell>
        <mxCell id="m8sYrSvvSTLbcMCxaOKe-2" value="" style="endArrow=none;html=1;rounded=0;entryX=0.5;entryY=1;entryDx=0;entryDy=0;fontFamily=Courier New;" edge="1" parent="1">
          <mxGeometry width="50" height="50" relative="1" as="geometry">
            <mxPoint x="280" y="375" as="sourcePoint" />
            <mxPoint x="280" y="75.00000000000003" as="targetPoint" />
          </mxGeometry>
        </mxCell>
        <mxCell id="m8sYrSvvSTLbcMCxaOKe-3" value="" style="endArrow=classic;html=1;rounded=0;fontFamily=Courier New;" edge="1" parent="1">
          <mxGeometry width="50" height="50" relative="1" as="geometry">
            <mxPoint x="280" y="105" as="sourcePoint" />
            <mxPoint x="350" y="105" as="targetPoint" />
          </mxGeometry>
        </mxCell>
        <mxCell id="m8sYrSvvSTLbcMCxaOKe-4" value="" style="endArrow=classic;html=1;rounded=0;fontFamily=Courier New;" edge="1" parent="1">
          <mxGeometry width="50" height="50" relative="1" as="geometry">
            <mxPoint x="280" y="135" as="sourcePoint" />
            <mxPoint x="350" y="135" as="targetPoint" />
          </mxGeometry>
        </mxCell>
        <mxCell id="m8sYrSvvSTLbcMCxaOKe-5" value="" style="endArrow=classic;html=1;rounded=0;fontFamily=Courier New;" edge="1" parent="1">
          <mxGeometry width="50" height="50" relative="1" as="geometry">
            <mxPoint x="280" y="165" as="sourcePoint" />
            <mxPoint x="350" y="165" as="targetPoint" />
          </mxGeometry>
        </mxCell>
        <mxCell id="m8sYrSvvSTLbcMCxaOKe-6" value="" style="endArrow=classic;html=1;rounded=0;fontFamily=Courier New;" edge="1" parent="1">
          <mxGeometry width="50" height="50" relative="1" as="geometry">
            <mxPoint x="280" y="195" as="sourcePoint" />
            <mxPoint x="350" y="195" as="targetPoint" />
          </mxGeometry>
        </mxCell>
        <mxCell id="m8sYrSvvSTLbcMCxaOKe-7" value="" style="endArrow=classic;html=1;rounded=0;fontFamily=Courier New;" edge="1" parent="1">
          <mxGeometry width="50" height="50" relative="1" as="geometry">
            <mxPoint x="280" y="225" as="sourcePoint" />
            <mxPoint x="350" y="225" as="targetPoint" />
          </mxGeometry>
        </mxCell>
        <mxCell id="m8sYrSvvSTLbcMCxaOKe-8" value="" style="endArrow=classic;html=1;rounded=0;fontFamily=Courier New;" edge="1" parent="1">
          <mxGeometry width="50" height="50" relative="1" as="geometry">
            <mxPoint x="280" y="255" as="sourcePoint" />
            <mxPoint x="350" y="255" as="targetPoint" />
          </mxGeometry>
        </mxCell>
        <mxCell id="m8sYrSvvSTLbcMCxaOKe-9" value="" style="endArrow=classic;html=1;rounded=0;fontFamily=Courier New;" edge="1" parent="1">
          <mxGeometry width="50" height="50" relative="1" as="geometry">
            <mxPoint x="280" y="285" as="sourcePoint" />
            <mxPoint x="350" y="285" as="targetPoint" />
          </mxGeometry>
        </mxCell>
        <mxCell id="m8sYrSvvSTLbcMCxaOKe-10" value="" style="endArrow=classic;html=1;rounded=0;fontFamily=Courier New;" edge="1" parent="1">
          <mxGeometry width="50" height="50" relative="1" as="geometry">
            <mxPoint x="280" y="315" as="sourcePoint" />
            <mxPoint x="350" y="315" as="targetPoint" />
          </mxGeometry>
        </mxCell>
        <mxCell id="m8sYrSvvSTLbcMCxaOKe-11" value="" style="endArrow=classic;html=1;rounded=0;fontFamily=Courier New;" edge="1" parent="1">
          <mxGeometry width="50" height="50" relative="1" as="geometry">
            <mxPoint x="280" y="345" as="sourcePoint" />
            <mxPoint x="350" y="345" as="targetPoint" />
          </mxGeometry>
        </mxCell>
        <mxCell id="m8sYrSvvSTLbcMCxaOKe-12" value="" style="endArrow=classic;html=1;rounded=0;fontFamily=Courier New;" edge="1" parent="1">
          <mxGeometry width="50" height="50" relative="1" as="geometry">
            <mxPoint x="280" y="375" as="sourcePoint" />
            <mxPoint x="350" y="375" as="targetPoint" />
          </mxGeometry>
        </mxCell>
        <mxCell id="m8sYrSvvSTLbcMCxaOKe-14" value="Alert message flag" style="rounded=1;whiteSpace=wrap;html=1;fontFamily=Courier New;fontSize=14;fillColor=#d5e8d4;strokeColor=#82b366;" vertex="1" parent="1">
          <mxGeometry x="350" y="90" width="160" height="30" as="geometry" />
        </mxCell>
        <mxCell id="m8sYrSvvSTLbcMCxaOKe-15" value="Timestamp" style="rounded=1;whiteSpace=wrap;html=1;fontFamily=Courier New;fontSize=14;fillColor=#d5e8d4;strokeColor=#82b366;" vertex="1" parent="1">
          <mxGeometry x="350" y="120" width="160" height="30" as="geometry" />
        </mxCell>
        <mxCell id="m8sYrSvvSTLbcMCxaOKe-16" value="Date" style="rounded=1;whiteSpace=wrap;html=1;fontFamily=Courier New;fontSize=14;fillColor=#d5e8d4;strokeColor=#82b366;" vertex="1" parent="1">
          <mxGeometry x="350" y="150" width="160" height="30" as="geometry" />
        </mxCell>
        <mxCell id="m8sYrSvvSTLbcMCxaOKe-17" value="Node" style="rounded=1;whiteSpace=wrap;html=1;fontFamily=Courier New;fontSize=14;fillColor=#d5e8d4;strokeColor=#82b366;" vertex="1" parent="1">
          <mxGeometry x="350" y="180" width="160" height="30" as="geometry" />
        </mxCell>
        <mxCell id="m8sYrSvvSTLbcMCxaOKe-19" value="Node (repeated)" style="rounded=1;whiteSpace=wrap;html=1;fontFamily=Courier New;fontSize=14;fillColor=#d5e8d4;strokeColor=#82b366;" vertex="1" parent="1">
          <mxGeometry x="350" y="240" width="160" height="30" as="geometry" />
        </mxCell>
        <mxCell id="m8sYrSvvSTLbcMCxaOKe-20" value="Message Type" style="rounded=1;whiteSpace=wrap;html=1;fontFamily=Courier New;fontSize=14;fillColor=#d5e8d4;strokeColor=#82b366;" vertex="1" parent="1">
          <mxGeometry x="350" y="270" width="160" height="30" as="geometry" />
        </mxCell>
        <mxCell id="m8sYrSvvSTLbcMCxaOKe-21" value="System Component" style="rounded=1;whiteSpace=wrap;html=1;fontFamily=Courier New;fontSize=14;fillColor=#d5e8d4;strokeColor=#82b366;" vertex="1" parent="1">
          <mxGeometry x="350" y="300" width="160" height="30" as="geometry" />
        </mxCell>
        <mxCell id="m8sYrSvvSTLbcMCxaOKe-22" value="Level" style="rounded=1;whiteSpace=wrap;html=1;fontFamily=Courier New;fontSize=14;fillColor=#d5e8d4;strokeColor=#82b366;" vertex="1" parent="1">
          <mxGeometry x="350" y="330" width="160" height="30" as="geometry" />
        </mxCell>
        <mxCell id="m8sYrSvvSTLbcMCxaOKe-23" value="Message Content" style="rounded=1;whiteSpace=wrap;html=1;fontFamily=Courier New;fontSize=14;fillColor=#d5e8d4;strokeColor=#82b366;" vertex="1" parent="1">
          <mxGeometry x="350" y="360" width="160" height="30" as="geometry" />
        </mxCell>
        <mxCell id="m8sYrSvvSTLbcMCxaOKe-24" value="Column 1" style="text;html=1;strokeColor=none;fillColor=none;align=center;verticalAlign=middle;whiteSpace=wrap;rounded=0;fontFamily=Courier New;fontStyle=2" vertex="1" parent="1">
          <mxGeometry x="190" y="90" width="60" height="30" as="geometry" />
        </mxCell>
        <mxCell id="m8sYrSvvSTLbcMCxaOKe-25" value="Column 2" style="text;html=1;strokeColor=none;fillColor=none;align=center;verticalAlign=middle;whiteSpace=wrap;rounded=0;fontFamily=Courier New;fontStyle=2" vertex="1" parent="1">
          <mxGeometry x="190" y="120" width="60" height="30" as="geometry" />
        </mxCell>
        <mxCell id="m8sYrSvvSTLbcMCxaOKe-26" value="Column 3" style="text;html=1;strokeColor=none;fillColor=none;align=center;verticalAlign=middle;whiteSpace=wrap;rounded=0;fontFamily=Courier New;fontStyle=2" vertex="1" parent="1">
          <mxGeometry x="190" y="150" width="60" height="30" as="geometry" />
        </mxCell>
        <mxCell id="m8sYrSvvSTLbcMCxaOKe-27" value="Column 4" style="text;html=1;strokeColor=none;fillColor=none;align=center;verticalAlign=middle;whiteSpace=wrap;rounded=0;fontFamily=Courier New;fontStyle=2" vertex="1" parent="1">
          <mxGeometry x="190" y="180" width="60" height="30" as="geometry" />
        </mxCell>
        <mxCell id="m8sYrSvvSTLbcMCxaOKe-28" value="Column 5" style="text;html=1;strokeColor=none;fillColor=none;align=center;verticalAlign=middle;whiteSpace=wrap;rounded=0;fontFamily=Courier New;fontStyle=2" vertex="1" parent="1">
          <mxGeometry x="190" y="210" width="60" height="30" as="geometry" />
        </mxCell>
        <mxCell id="m8sYrSvvSTLbcMCxaOKe-29" value="Column 6" style="text;html=1;strokeColor=none;fillColor=none;align=center;verticalAlign=middle;whiteSpace=wrap;rounded=0;fontFamily=Courier New;fontStyle=2" vertex="1" parent="1">
          <mxGeometry x="190" y="240" width="60" height="30" as="geometry" />
        </mxCell>
        <mxCell id="m8sYrSvvSTLbcMCxaOKe-30" value="Column 7" style="text;html=1;strokeColor=none;fillColor=none;align=center;verticalAlign=middle;whiteSpace=wrap;rounded=0;fontFamily=Courier New;fontStyle=2" vertex="1" parent="1">
          <mxGeometry x="190" y="270" width="60" height="30" as="geometry" />
        </mxCell>
        <mxCell id="m8sYrSvvSTLbcMCxaOKe-31" value="Column 8" style="text;html=1;strokeColor=none;fillColor=none;align=center;verticalAlign=middle;whiteSpace=wrap;rounded=0;fontFamily=Courier New;fontStyle=2" vertex="1" parent="1">
          <mxGeometry x="190" y="300" width="60" height="30" as="geometry" />
        </mxCell>
        <mxCell id="m8sYrSvvSTLbcMCxaOKe-32" value="Column 9" style="text;html=1;strokeColor=none;fillColor=none;align=center;verticalAlign=middle;whiteSpace=wrap;rounded=0;fontFamily=Courier New;fontStyle=2" vertex="1" parent="1">
          <mxGeometry x="190" y="330" width="60" height="30" as="geometry" />
        </mxCell>
        <mxCell id="m8sYrSvvSTLbcMCxaOKe-33" value="Column 10" style="text;html=1;strokeColor=none;fillColor=none;align=center;verticalAlign=middle;whiteSpace=wrap;rounded=0;fontFamily=Courier New;fontStyle=2" vertex="1" parent="1">
          <mxGeometry x="188" y="360" width="70" height="30" as="geometry" />
        </mxCell>
        <mxCell id="m8sYrSvvSTLbcMCxaOKe-34" value="string" style="rounded=1;whiteSpace=wrap;html=1;fillColor=#bac8d3;strokeColor=default;fontFamily=Courier New;fontSize=14;" vertex="1" parent="1">
          <mxGeometry x="550" y="90" width="330" height="30" as="geometry" />
        </mxCell>
        <mxCell id="m8sYrSvvSTLbcMCxaOKe-35" value="integer" style="rounded=1;whiteSpace=wrap;html=1;fillColor=#bac8d3;strokeColor=default;fontFamily=Courier New;fontSize=14;" vertex="1" parent="1">
          <mxGeometry x="550" y="120" width="330" height="30" as="geometry" />
        </mxCell>
        <mxCell id="m8sYrSvvSTLbcMCxaOKe-36" value="date" style="rounded=1;whiteSpace=wrap;html=1;fillColor=#bac8d3;strokeColor=default;fontFamily=Courier New;fontSize=14;" vertex="1" parent="1">
          <mxGeometry x="550" y="150" width="330" height="30" as="geometry" />
        </mxCell>
        <mxCell id="m8sYrSvvSTLbcMCxaOKe-37" value="string" style="rounded=1;whiteSpace=wrap;html=1;fillColor=#bac8d3;strokeColor=default;fontFamily=Courier New;fontSize=14;" vertex="1" parent="1">
          <mxGeometry x="550" y="180" width="330" height="30" as="geometry" />
        </mxCell>
        <mxCell id="m8sYrSvvSTLbcMCxaOKe-38" value="timestamp [yyyy-MM-dd-HH.mm.ss.SSSSSS" style="rounded=1;whiteSpace=wrap;html=1;fillColor=#bac8d3;strokeColor=default;fontFamily=Courier New;fontSize=14;" vertex="1" parent="1">
          <mxGeometry x="550" y="210" width="330" height="30" as="geometry" />
        </mxCell>
        <mxCell id="m8sYrSvvSTLbcMCxaOKe-39" value="string" style="rounded=1;whiteSpace=wrap;html=1;fillColor=#bac8d3;strokeColor=default;fontFamily=Courier New;fontSize=14;" vertex="1" parent="1">
          <mxGeometry x="550" y="240" width="330" height="30" as="geometry" />
        </mxCell>
        <mxCell id="m8sYrSvvSTLbcMCxaOKe-40" value="string" style="rounded=1;whiteSpace=wrap;html=1;fillColor=#bac8d3;strokeColor=default;fontFamily=Courier New;fontSize=14;" vertex="1" parent="1">
          <mxGeometry x="550" y="270" width="330" height="30" as="geometry" />
        </mxCell>
        <mxCell id="m8sYrSvvSTLbcMCxaOKe-41" value="string" style="rounded=1;whiteSpace=wrap;html=1;fillColor=#bac8d3;strokeColor=default;fontFamily=Courier New;fontSize=14;" vertex="1" parent="1">
          <mxGeometry x="550" y="300" width="330" height="30" as="geometry" />
        </mxCell>
        <mxCell id="m8sYrSvvSTLbcMCxaOKe-42" value="string" style="rounded=1;whiteSpace=wrap;html=1;fillColor=#bac8d3;strokeColor=default;fontFamily=Courier New;fontSize=14;" vertex="1" parent="1">
          <mxGeometry x="550" y="330" width="330" height="30" as="geometry" />
        </mxCell>
        <mxCell id="m8sYrSvvSTLbcMCxaOKe-43" value="string" style="rounded=1;whiteSpace=wrap;html=1;fillColor=#bac8d3;strokeColor=default;fontFamily=Courier New;fontSize=14;" vertex="1" parent="1">
          <mxGeometry x="550" y="360" width="330" height="30" as="geometry" />
        </mxCell>
        <mxCell id="m8sYrSvvSTLbcMCxaOKe-46" value="Column Names" style="shape=parallelogram;perimeter=parallelogramPerimeter;whiteSpace=wrap;html=1;fixedSize=1;fontFamily=Courier New;fillColor=#647687;strokeColor=#314354;fontColor=#ffffff;fontStyle=1" vertex="1" parent="1">
          <mxGeometry x="360" y="30" width="140" height="40" as="geometry" />
        </mxCell>
        <mxCell id="m8sYrSvvSTLbcMCxaOKe-47" value="Data types" style="shape=parallelogram;perimeter=parallelogramPerimeter;whiteSpace=wrap;html=1;fixedSize=1;fontFamily=Courier New;fillColor=#647687;strokeColor=#314354;fontColor=#ffffff;fontStyle=1" vertex="1" parent="1">
          <mxGeometry x="645" y="30" width="140" height="40" as="geometry" />
        </mxCell>
        <mxCell id="m8sYrSvvSTLbcMCxaOKe-48" value="Date and Time" style="rounded=1;whiteSpace=wrap;html=1;fontFamily=Courier New;fontSize=14;fillColor=#d5e8d4;strokeColor=#82b366;" vertex="1" parent="1">
          <mxGeometry x="350" y="210" width="160" height="30" as="geometry" />
        </mxCell>
        <mxCell id="m8sYrSvvSTLbcMCxaOKe-50" value="" style="shape=flexArrow;endArrow=classic;html=1;rounded=0;endWidth=6.666666666666667;endSize=5.474666666666667;exitX=0.997;exitY=0.515;exitDx=0;exitDy=0;exitPerimeter=0;entryX=0;entryY=0.523;entryDx=0;entryDy=0;entryPerimeter=0;fillColor=#fad7ac;strokeColor=#b46504;" edge="1" parent="1" source="m8sYrSvvSTLbcMCxaOKe-14">
          <mxGeometry width="50" height="50" relative="1" as="geometry">
            <mxPoint x="508.84000000000003" y="105.63" as="sourcePoint" />
            <mxPoint x="549" y="105.69000000000003" as="targetPoint" />
          </mxGeometry>
        </mxCell>
        <mxCell id="m8sYrSvvSTLbcMCxaOKe-51" value="" style="shape=flexArrow;endArrow=classic;html=1;rounded=0;endWidth=6.666666666666667;endSize=5.474666666666667;exitX=0.997;exitY=0.515;exitDx=0;exitDy=0;exitPerimeter=0;entryX=0;entryY=0.523;entryDx=0;entryDy=0;entryPerimeter=0;fillColor=#fad7ac;strokeColor=#b46504;" edge="1" parent="1">
          <mxGeometry width="50" height="50" relative="1" as="geometry">
            <mxPoint x="510" y="135" as="sourcePoint" />
            <mxPoint x="549" y="135.69000000000003" as="targetPoint" />
          </mxGeometry>
        </mxCell>
        <mxCell id="m8sYrSvvSTLbcMCxaOKe-52" value="" style="shape=flexArrow;endArrow=classic;html=1;rounded=0;endWidth=6.666666666666667;endSize=5.474666666666667;exitX=0.997;exitY=0.515;exitDx=0;exitDy=0;exitPerimeter=0;entryX=0;entryY=0.523;entryDx=0;entryDy=0;entryPerimeter=0;fillColor=#fad7ac;strokeColor=#b46504;" edge="1" parent="1">
          <mxGeometry width="50" height="50" relative="1" as="geometry">
            <mxPoint x="510" y="164" as="sourcePoint" />
            <mxPoint x="549" y="164.69000000000003" as="targetPoint" />
          </mxGeometry>
        </mxCell>
        <mxCell id="m8sYrSvvSTLbcMCxaOKe-53" value="" style="shape=flexArrow;endArrow=classic;html=1;rounded=0;endWidth=6.666666666666667;endSize=5.474666666666667;exitX=0.997;exitY=0.515;exitDx=0;exitDy=0;exitPerimeter=0;entryX=0;entryY=0.523;entryDx=0;entryDy=0;entryPerimeter=0;fillColor=#fad7ac;strokeColor=#b46504;" edge="1" parent="1">
          <mxGeometry width="50" height="50" relative="1" as="geometry">
            <mxPoint x="510" y="195" as="sourcePoint" />
            <mxPoint x="549" y="195.69000000000003" as="targetPoint" />
          </mxGeometry>
        </mxCell>
        <mxCell id="m8sYrSvvSTLbcMCxaOKe-54" value="" style="shape=flexArrow;endArrow=classic;html=1;rounded=0;endWidth=6.666666666666667;endSize=5.474666666666667;exitX=0.997;exitY=0.515;exitDx=0;exitDy=0;exitPerimeter=0;entryX=0;entryY=0.523;entryDx=0;entryDy=0;entryPerimeter=0;fillColor=#fad7ac;strokeColor=#b46504;" edge="1" parent="1">
          <mxGeometry width="50" height="50" relative="1" as="geometry">
            <mxPoint x="510" y="225" as="sourcePoint" />
            <mxPoint x="549" y="225.69000000000003" as="targetPoint" />
          </mxGeometry>
        </mxCell>
        <mxCell id="m8sYrSvvSTLbcMCxaOKe-55" value="" style="shape=flexArrow;endArrow=classic;html=1;rounded=0;endWidth=6.666666666666667;endSize=5.474666666666667;exitX=0.997;exitY=0.515;exitDx=0;exitDy=0;exitPerimeter=0;entryX=0;entryY=0.523;entryDx=0;entryDy=0;entryPerimeter=0;fillColor=#fad7ac;strokeColor=#b46504;" edge="1" parent="1">
          <mxGeometry width="50" height="50" relative="1" as="geometry">
            <mxPoint x="510" y="255" as="sourcePoint" />
            <mxPoint x="549" y="255.69000000000003" as="targetPoint" />
          </mxGeometry>
        </mxCell>
        <mxCell id="m8sYrSvvSTLbcMCxaOKe-56" value="" style="shape=flexArrow;endArrow=classic;html=1;rounded=0;endWidth=6.666666666666667;endSize=5.474666666666667;exitX=0.997;exitY=0.515;exitDx=0;exitDy=0;exitPerimeter=0;entryX=0;entryY=0.523;entryDx=0;entryDy=0;entryPerimeter=0;fillColor=#fad7ac;strokeColor=#b46504;" edge="1" parent="1">
          <mxGeometry width="50" height="50" relative="1" as="geometry">
            <mxPoint x="510" y="285" as="sourcePoint" />
            <mxPoint x="549" y="285.69000000000005" as="targetPoint" />
          </mxGeometry>
        </mxCell>
        <mxCell id="m8sYrSvvSTLbcMCxaOKe-57" value="" style="shape=flexArrow;endArrow=classic;html=1;rounded=0;endWidth=6.666666666666667;endSize=5.474666666666667;exitX=0.997;exitY=0.515;exitDx=0;exitDy=0;exitPerimeter=0;entryX=0;entryY=0.523;entryDx=0;entryDy=0;entryPerimeter=0;fillColor=#fad7ac;strokeColor=#b46504;" edge="1" parent="1">
          <mxGeometry width="50" height="50" relative="1" as="geometry">
            <mxPoint x="510" y="314" as="sourcePoint" />
            <mxPoint x="549" y="314.69000000000005" as="targetPoint" />
          </mxGeometry>
        </mxCell>
        <mxCell id="m8sYrSvvSTLbcMCxaOKe-58" value="" style="shape=flexArrow;endArrow=classic;html=1;rounded=0;endWidth=6.666666666666667;endSize=5.474666666666667;exitX=0.997;exitY=0.515;exitDx=0;exitDy=0;exitPerimeter=0;entryX=0;entryY=0.523;entryDx=0;entryDy=0;entryPerimeter=0;fillColor=#fad7ac;strokeColor=#b46504;" edge="1" parent="1">
          <mxGeometry width="50" height="50" relative="1" as="geometry">
            <mxPoint x="510" y="344" as="sourcePoint" />
            <mxPoint x="549" y="344.69000000000005" as="targetPoint" />
          </mxGeometry>
        </mxCell>
        <mxCell id="m8sYrSvvSTLbcMCxaOKe-59" value="" style="shape=flexArrow;endArrow=classic;html=1;rounded=0;endWidth=6.666666666666667;endSize=5.474666666666667;exitX=0.997;exitY=0.515;exitDx=0;exitDy=0;exitPerimeter=0;entryX=0;entryY=0.523;entryDx=0;entryDy=0;entryPerimeter=0;fillColor=#fad7ac;strokeColor=#b46504;" edge="1" parent="1">
          <mxGeometry width="50" height="50" relative="1" as="geometry">
            <mxPoint x="510" y="375" as="sourcePoint" />
            <mxPoint x="549" y="375.69000000000005" as="targetPoint" />
          </mxGeometry>
        </mxCell>
      </root>
    </mxGraphModel>
  </diagram>
</mxfile>
